# xmcd
#
# Track frame offsets:
#	150
#	18541
#	28781
#	42273
#	58177
#	71649
#	86820
#	104407
#	120702
#	133392
#	150550
#	162317
#	176400
#
# Disc length: 2556 seconds
#
# Revision: 0
# Processed by: cddbd v1.5.1PL0 Copyright (c) Steve Scherf et al.
# Submitted via: dBpowerAMP V4.0
#
DISCID=b709fa0d
DTITLE=Waylon Thibodeaux - The best of
DYEAR=1900
DGENRE=Country
TTITLE0=Jambalaya
TTITLE1=Grand Mamou
TTITLE2=Bajou Pon Pon
TTITLE3=Like a real Cajun
TTITLE4=Grand Texas
TTITLE5=Big Mamou
TTITLE6=Hot Tamale Baby
TTITLE7=Jolie Blonde
TTITLE8=Ti Maurice
TTITLE9=Mathilda
TTITLE10=Bayou Teche
TTITLE11=Blues de Toc Toc
TTITLE12=Everybody calls me crazy
EXTD=The best of Waylon Thibodeaux
EXTT0=
EXTT1=
EXTT2=
EXTT3=
EXTT4=
EXTT5=
EXTT6=
EXTT7=
EXTT8=
EXTT9=
EXTT10=
EXTT11=
EXTT12=
PLAYORDER=
